<svg id="visual" viewBox="0 0 900 600" width="900" height="600" xmlns="http://www.w3.org/2000/svg" xmlns:xlink="http://www.w3.org/1999/xlink" version="1.1"><rect x="0" y="0" width="900" height="600" fill="#001220"/><path d="M0 442L21.5 438C43 434 86 426 128.8 420.5C171.7 415 214.3 412 257.2 414.3C300 416.7 343 424.3 385.8 416C428.7 407.7 471.3 383.3 514.2 379.7C557 376 600 393 642.8 393.8C685.7 394.7 728.3 379.3 771.2 376C814 372.7 857 381.3 878.5 385.7L900 390L900 601L878.5 601C857 601 814 601 771.2 601C728.3 601 685.7 601 642.8 601C600 601 557 601 514.2 601C471.3 601 428.7 601 385.8 601C343 601 300 601 257.2 601C214.3 601 171.7 601 128.8 601C86 601 43 601 21.5 601L0 601Z" fill="#960ea1"/><path d="M0 396L21.5 398C43 400 86 404 128.8 403.7C171.7 403.3 214.3 398.7 257.2 407.8C300 417 343 440 385.8 450.2C428.7 460.3 471.3 457.7 514.2 447.7C557 437.7 600 420.3 642.8 413.8C685.7 407.3 728.3 411.7 771.2 424.3C814 437 857 458 878.5 468.5L900 479L900 601L878.5 601C857 601 814 601 771.2 601C728.3 601 685.7 601 642.8 601C600 601 557 601 514.2 601C471.3 601 428.7 601 385.8 601C343 601 300 601 257.2 601C214.3 601 171.7 601 128.8 601C86 601 43 601 21.5 601L0 601Z" fill="#a918b0"/><path d="M0 449L21.5 449.3C43 449.7 86 450.3 128.8 453C171.7 455.7 214.3 460.3 257.2 465C300 469.7 343 474.3 385.8 470.3C428.7 466.3 471.3 453.7 514.2 451.3C557 449 600 457 642.8 461C685.7 465 728.3 465 771.2 468.8C814 472.7 857 480.3 878.5 484.2L900 488L900 601L878.5 601C857 601 814 601 771.2 601C728.3 601 685.7 601 642.8 601C600 601 557 601 514.2 601C471.3 601 428.7 601 385.8 601C343 601 300 601 257.2 601C214.3 601 171.7 601 128.8 601C86 601 43 601 21.5 601L0 601Z" fill="#bc20be"/><path d="M0 501L21.5 506C43 511 86 521 128.8 521.8C171.7 522.7 214.3 514.3 257.2 510C300 505.7 343 505.3 385.8 501.3C428.7 497.3 471.3 489.7 514.2 494.2C557 498.7 600 515.3 642.8 518.7C685.7 522 728.3 512 771.2 508.8C814 505.7 857 509.3 878.5 511.2L900 513L900 601L878.5 601C857 601 814 601 771.2 601C728.3 601 685.7 601 642.8 601C600 601 557 601 514.2 601C471.3 601 428.7 601 385.8 601C343 601 300 601 257.2 601C214.3 601 171.7 601 128.8 601C86 601 43 601 21.5 601L0 601Z" fill="#cf28cd"/><path d="M0 554L21.5 550C43 546 86 538 128.8 539.7C171.7 541.3 214.3 552.7 257.2 555.3C300 558 343 552 385.8 552.7C428.7 553.3 471.3 560.7 514.2 564.2C557 567.7 600 567.3 642.8 563.2C685.7 559 728.3 551 771.2 551.8C814 552.7 857 562.3 878.5 567.2L900 572L900 601L878.5 601C857 601 814 601 771.2 601C728.3 601 685.7 601 642.8 601C600 601 557 601 514.2 601C471.3 601 428.7 601 385.8 601C343 601 300 601 257.2 601C214.3 601 171.7 601 128.8 601C86 601 43 601 21.5 601L0 601Z" fill="#e330db"/></svg>